<svg width="46" height="48" viewBox="0 0 46 48" fill="none" xmlns="http://www.w3.org/2000/svg">
<path d="M13.01 7.85667C12.3969 6.79486 11.0313 6.42234 10.036 7.13831C6.69539 9.54134 4.07573 12.8356 2.48983 16.6643C0.619662 21.1793 0.291555 26.1852 1.5564 30.9056C2.82124 35.6261 5.60835 39.7973 9.48545 42.7723C13.3625 45.7473 18.113 47.3599 23 47.3599C27.8869 47.3599 32.6374 45.7473 36.5145 42.7723C40.3916 39.7973 43.1787 35.6261 44.4435 30.9056C45.7083 26.1852 45.3802 21.1793 43.5101 16.6643C41.9242 12.8356 39.3045 9.54134 35.9639 7.13831C34.9686 6.42234 33.603 6.79486 32.99 7.85667C32.3769 8.91848 32.7512 10.2657 33.7283 11.0064C36.2305 12.903 38.1964 15.4382 39.4081 18.3634C40.9042 21.9754 41.1667 25.9801 40.1548 29.7565C39.1429 33.5329 36.9132 36.8698 33.8116 39.2498C30.7099 41.6298 26.9095 42.9199 23 42.9199C19.0904 42.9199 15.29 41.6298 12.1883 39.2498C9.08667 36.8698 6.85698 33.5329 5.84511 29.7565C4.83323 25.9801 5.09572 21.9754 6.59185 18.3634C7.8035 15.4382 9.76942 12.903 12.2716 11.0064C13.2487 10.2657 13.623 8.91848 13.01 7.85667Z" fill="#CC6633"/>
<rect x="20.78" width="4.44" height="14.8" rx="2.22" fill="#CC6633"/>
</svg>
