<svg width="32" height="32" viewBox="0 0 32 32" fill="none" xmlns="http://www.w3.org/2000/svg">
<path fill-rule="evenodd" clip-rule="evenodd" d="M30.9461 12.7586L28.3211 20.8374H15.625L13 12.7586L18.179 15.6785L21.973 8.5L25.7671 15.6785L30.9461 12.7586Z" fill="#252626"/>
<path d="M30.9461 12.7586L31.5167 12.944C31.5931 12.7088 31.5174 12.4508 31.3261 12.2942C31.1347 12.1376 30.8668 12.1145 30.6514 12.2359L30.9461 12.7586ZM28.3211 20.8374V21.4374C28.5811 21.4374 28.8114 21.27 28.8918 21.0228L28.3211 20.8374ZM15.625 20.8374L15.0543 21.0228C15.1347 21.27 15.365 21.4374 15.625 21.4374V20.8374ZM13 12.7586L13.2947 12.2359C13.0793 12.1145 12.8114 12.1376 12.62 12.2942C12.4287 12.4508 12.353 12.7088 12.4294 12.944L13 12.7586ZM18.179 15.6785L17.8843 16.2012C18.0254 16.2807 18.1926 16.2998 18.348 16.2542C18.5034 16.2086 18.6337 16.1021 18.7094 15.9589L18.179 15.6785ZM21.973 8.5L22.5035 8.21963C22.3996 8.02301 22.1954 7.9 21.973 7.9C21.7507 7.9 21.5465 8.02301 21.4426 8.21963L21.973 8.5ZM25.7671 15.6785L25.2367 15.9589C25.3124 16.1021 25.4427 16.2086 25.5981 16.2542C25.7535 16.2998 25.9207 16.2807 26.0618 16.2012L25.7671 15.6785ZM30.3755 12.5732L27.7505 20.652L28.8918 21.0228L31.5167 12.944L30.3755 12.5732ZM28.3211 20.2374H15.625V21.4374H28.3211V20.2374ZM16.1956 20.652L13.5706 12.5732L12.4294 12.944L15.0543 21.0228L16.1956 20.652ZM12.7053 13.2812L17.8843 16.2012L18.4736 15.1559L13.2947 12.2359L12.7053 13.2812ZM18.7094 15.9589L22.5035 8.78037L21.4426 8.21963L17.6485 15.3981L18.7094 15.9589ZM21.4426 8.78037L25.2367 15.9589L26.2976 15.3981L22.5035 8.21963L21.4426 8.78037ZM26.0618 16.2012L31.2408 13.2812L30.6514 12.2359L25.4725 15.1559L26.0618 16.2012Z" fill="#252626"/>
<path d="M27.9731 23.5H15.9731" stroke="#252626" stroke-width="1.8" stroke-linecap="round" stroke-linejoin="round"/>
</svg>
